# xmcd CD database file
#
# Track frame offsets:
#	150
#	12542
#	25742
#	36903
#	49119
#	69245
#	81285
#	97157
#	108775
#	121975
#	134789
#	146267
#	158883
#	174544
#
# Disc length: 2459 seconds
#
# Revision: 0
# Processed by: cddbd v1.5.2PL0 Copyright (c) Steve Scherf et al.
# Submitted via: CDex 1.51
#
DISCID=bd09990e
DTITLE=Jägerklause Hausmusik - Ein kleines Edelweiss
DYEAR=2006
DGENRE=Volkstümlich
TTITLE0=Ein kleines Edelweiß
TTITLE1=Früh schon am Morgen
TTITLE2=Un Willi da seinige
TTITLE3=Bergvagabunden
TTITLE4=Schaut der Jäger in das Tal
TTITLE5=Der Schneidige
TTITLE6=Innsbruck du wunderschöne Alpenstadt
TTITLE7=Da Zache
TTITLE8=Wir kommen von den Bergen
TTITLE9=Königsjodler
TTITLE10=Stoaberghüttn Landler
TTITLE11=Über den Almen
TTITLE12=Im Moment hab i koa Zeit
TTITLE13=Lustige Stunden
EXTD=YEAR: 2006
EXTT0=
EXTT1=
EXTT2=
EXTT3=
EXTT4=
EXTT5=
EXTT6=
EXTT7=
EXTT8=
EXTT9=
EXTT10=
EXTT11=
EXTT12=
EXTT13=
PLAYORDER=
